<?xml version="1.0" encoding="UTF-8"?>
<svg width="1208px" height="686px" viewBox="0 0 1208 686" version="1.1" xmlns="http://www.w3.org/2000/svg" xmlns:xlink="http://www.w3.org/1999/xlink">
    <!-- Generator: Sketch 63.1 (92452) - https://sketch.com -->
    <title>Logo Shero Ambientia Color</title>
    <desc>Created with Sketch.</desc>
    <g id="Logo-Shero-Ambientia-Color" stroke="none" stroke-width="1" fill="none" fill-rule="evenodd">
        <g id="Shero-Logo-01" fill-rule="nonzero">
            <path d="M137.324344,189.224689 C127.81893,171.200962 112.165835,159.367695 89.3567585,159.367695 C67.5461912,159.367695 43.347034,168.834309 43.347034,192.53018 C43.347034,213.38998 58.0309887,220.959359 86.9779579,227.599679 L118.793193,235.198397 C149.609919,242.288577 172.849724,264.537074 172.849724,295.831663 C172.849724,344.142685 129.669109,364.044088 86.498282,364.044088 C52.842658,364.044088 22.0161426,352.220601 1.12576985,320.955351 L28.1736143,302.471984 C40.9682334,322.353828 60.4783144,335.634469 86.498282,335.634469 C112.116888,335.634469 138.704635,324.260842 138.704635,298.687295 C138.704635,276.3899 119.732966,268.820521 96.4637925,263.148377 L66.116953,256.028858 C50.9141653,252.253948 9.18236629,239.892585 9.18236629,197.742685 C9.18236629,151.778758 49.5045057,130.938517 91.2558833,130.938517 C122.033452,130.938517 150.970632,141.823166 165.282593,170.741323 L137.324344,189.224689 Z" id="Path" fill="#221F1F"></path>
            <path d="M243.136921,0.146693387 L274.46269,0.146693387 L274.46269,172.169138 L275.441621,172.169138 C289.146645,147.974509 320.472415,130.938517 349.908849,130.938517 C406.344182,130.938517 433.382237,162.682966 433.382237,217.663647 L433.382237,358.391503 L402.056467,358.391503 L402.056467,235.687375 C402.056467,186.388617 388.302496,159.406814 341.822885,159.406814 C335.224895,159.406814 274.492058,163.660922 274.492058,244.684569 L274.492058,358.391503 L243.166288,358.391503 L243.136921,0.146693387 Z" id="Path" fill="#221F1F"></path>
            <path d="M540.555527,256.028858 C544.392934,300.584529 578.048558,335.634469 622.188525,335.634469 C655.364473,335.634469 681.002658,317.131543 693.307812,297.269259 L717.555916,317.131543 C691.477212,350.382044 658.741783,364.073427 622.237472,364.073427 C556.286937,364.073427 507.448104,314.363928 507.448104,247.530421 C507.448104,180.696914 556.286937,130.967856 619.359417,130.967856 C686.709822,131.437275 725.602723,181.205451 725.602723,241.828938 L725.602723,256.028858 L540.555527,256.028858 Z M691.428266,230.425972 C691.428266,188.276072 664.380421,159.367695 619.31047,159.367695 C578.547812,159.367695 541.534457,193.938437 541.534457,230.425972 L691.428266,230.425972 Z" id="Shape" fill="#221F1F"></path>
            <path d="M816.682399,205.801042 C816.682399,185.88986 815.703468,168.834309 814.812642,136.620441 L845.590211,136.620441 L845.590211,177.831503 L846.569141,177.831503 C855.555721,154.15519 878.873841,130.889619 917.717796,130.889619 C925.563784,130.753495 933.39096,131.7013 940.97718,133.706132 L934.819708,164.511743 C931.031248,163.093707 925.343663,162.15487 916.797601,162.15487 C869.33906,162.15487 848.017958,203.385491 848.017958,233.232705 L848.017958,358.391503 L816.692188,358.391503 L816.682399,205.801042 Z" id="Path" fill="#221F1F"></path>
            <path d="M1089.92143,364.044088 C1021.15157,364.044088 972.244214,314.334589 972.244214,247.501082 C972.244214,180.667575 1021.19073,130.938517 1089.92143,130.938517 C1159.14159,130.938517 1208,180.696914 1208,247.501082 C1208,314.305251 1159.14159,364.044088 1089.92143,364.044088 Z M1089.92143,159.367695 C1038.70379,159.367695 1006.43825,197.742685 1006.43825,247.501082 C1006.43825,297.259479 1038.74295,335.634469 1089.92143,335.634469 C1141.63831,335.634469 1173.88428,297.269259 1173.88428,247.501082 C1173.88428,197.732906 1141.63831,159.406814 1089.92143,159.406814 L1089.92143,159.367695 Z" id="Shape" fill="#221F1F"></path>
            <rect id="Rectangle" fill="#434243" x="603.285381" y="447.40505" width="603.001491" height="40.4580361"></rect>
            <rect id="Rectangle" fill="#E8262B" x="0" y="447.40505" width="603.285381" height="40.4580361"></rect>
        </g>
        <path d="M24.6331832,659.674699 C33.2596569,659.674699 39.2406786,656.672691 44.1865235,649.514056 L44.4165628,649.514056 C44.4165628,652.400602 44.7616218,655.633534 45.2217004,658.289157 L52.237899,658.289157 C51.6628007,655.287149 51.3177418,650.322289 51.3177418,646.165663 L51.3177418,622.495984 C51.3177418,609.333333 42.0011502,602.86747 30.3841656,602.86747 C21.1825937,602.86747 13.5912968,606.215863 9.22055018,610.603414 L13.5912968,615.799197 C17.3869453,611.988956 23.2529474,609.448795 29.5790281,609.448795 C38.8956197,609.448795 43.9564842,614.067269 43.9564842,623.419679 L43.9564842,625.151606 C24.2881242,625.151606 6,626.65261 6,643.279116 C6,655.287149 16.4667881,659.674699 24.6331832,659.674699 Z M26.7035369,653.208835 C20.6074954,653.208835 14.0513754,650.668675 14.0513754,642.932731 C14.0513754,632.656627 28.8889102,631.271084 41.6560912,631.271084 L43.9564842,631.271084 L43.9564842,635.312249 C43.9564842,644.895582 37.7454232,653.208835 26.7035369,653.208835 Z M79.2675165,658.289157 L79.2675165,630.578313 C79.2675165,616.145582 87.318892,609.448795 95.6003067,609.448795 C106.872232,609.448795 110.207802,617.069277 110.207802,628.384538 L110.207802,658.289157 L118.029138,658.289157 L118.029138,625.151606 C118.029138,611.758032 111.242979,602.86747 97.5556408,602.86747 C89.9643439,602.86747 82.1430078,607.25502 79.1524969,613.48996 L78.9224576,613.48996 C78.9224576,611.180723 78.6924183,607.139558 78.462379,604.253012 L70.9861018,604.253012 C71.3311607,607.947791 71.4461804,613.259036 71.4461804,616.145582 L71.4461804,658.289157 L79.2675165,658.289157 Z M181.750024,659.674699 C189.57136,659.674699 196.12748,656.095382 198.887952,651.245984 L199.233011,651.245984 L199.233011,658.289157 L212.115211,658.289157 L212.115211,624.574297 C212.115211,613.48996 207.284386,601.251004 187.501006,601.251004 C179.104572,601.251004 170.363079,604.253012 164.152018,610.026104 L171.283236,618.454819 C174.848845,614.875502 180.484808,612.104418 186.35081,612.104418 C193.251989,612.104418 199.002971,615.452811 199.002971,622.26506 L199.002971,623.650602 C181.750024,623.650602 161.046487,625.959839 161.046487,642.470884 C161.046487,655.40261 172.893511,659.674699 181.750024,659.674699 Z M184.510496,649.167671 C179.79469,649.167671 174.848845,647.551205 174.848845,642.23996 C174.848845,634.042169 187.155947,633.003012 195.897441,633.003012 L199.002971,633.003012 L199.002971,634.965863 C199.002971,643.740964 193.942107,649.167671 184.510496,649.167671 Z M242.02032,658.289157 L242.02032,627.807229 C242.02032,620.417671 245.815969,612.797189 254.097383,612.797189 C261.113582,612.797189 264.334132,617.992972 264.334132,624.805221 L264.334132,658.289157 L278.13649,658.289157 L278.13649,628.038153 C278.13649,620.879518 281.702099,612.797189 290.328573,612.797189 C299.185086,612.797189 300.680341,620.99498 300.680341,627.576305 L300.680341,658.289157 L314.482699,658.289157 L314.482699,623.650602 C314.482699,612.335341 308.501677,601.251004 294.124221,601.251004 C285.842806,601.251004 279.631745,605.061245 275.951117,611.758032 C272.845586,605.523092 267.209623,601.251004 258.698169,601.251004 C249.841656,601.251004 243.975654,606.331325 241.560242,611.758032 L241.330202,611.758032 L241.330202,602.86747 L228.217962,602.86747 L228.217962,658.289157 L242.02032,658.289157 Z M363.136011,659.905622 C379.92888,659.905622 390.280648,646.512048 390.280648,630.34739 C390.280648,613.951807 379.238762,601.251004 363.48107,601.251004 C353.359341,601.251004 347.838397,606.331325 344.962906,609.910643 L344.617847,609.910643 L344.617847,571 L330.815489,571 L330.815489,658.289157 L343.927729,658.289157 L343.927729,649.975904 L344.157769,649.975904 C347.953417,656.326305 355.429694,659.905622 363.136011,659.905622 Z M360.375539,648.359438 C350.25381,648.359438 344.157769,639.237952 344.157769,630.578313 C344.157769,621.918675 350.25381,612.566265 360.375539,612.566265 C371.072367,612.566265 376.248251,621.687751 376.248251,630.34739 C376.248251,639.007028 371.072367,648.359438 360.375539,648.359438 Z M410.639126,592.360442 C415.69999,592.360442 419.610658,588.781124 419.610658,584.047189 C419.610658,579.313253 415.69999,575.733936 410.639126,575.733936 C405.578261,575.733936 401.897633,579.659639 401.897633,584.047189 C401.897633,588.434739 405.578261,592.360442 410.639126,592.360442 Z M417.655324,658.289157 L417.655324,602.86747 L403.852967,602.86747 L403.852967,658.289157 L417.655324,658.289157 Z M460.902713,659.905622 C471.369501,659.905622 479.190837,656.210843 484.59676,648.821285 L475.395188,641.431727 C472.289658,645.819277 467.688872,648.590361 460.787693,648.590361 C452.736317,648.590361 445.605099,642.817269 445.030001,634.965863 L487.012173,634.965863 C487.127193,633.695783 487.127193,632.541165 487.127193,631.271084 C487.127193,611.296185 475.855267,601.251004 460.442634,601.251004 C443.764785,601.251004 431.227643,613.028112 431.227643,630.924699 C431.227643,648.936747 443.879804,659.905622 460.902713,659.905622 Z M473.324835,625.036145 L445.030001,625.036145 C445.605099,617.300201 452.161219,611.64257 460.327614,611.64257 C469.299147,611.64257 473.324835,617.87751 473.324835,625.036145 Z M514.27183,658.289157 L514.27183,627.807229 C514.27183,620.417671 518.412537,612.797189 527.15403,612.797189 C536.010543,612.797189 537.505799,620.99498 537.505799,627.576305 L537.505799,658.289157 L551.308157,658.289157 L551.308157,623.650602 C551.308157,612.335341 545.327135,601.251004 530.949679,601.251004 C522.783284,601.251004 516.227164,606.215863 513.811751,611.758032 L513.581712,611.758032 L513.581712,602.86747 L500.469472,602.86747 L500.469472,658.289157 L514.27183,658.289157 Z M587.079268,659.443775 C590.184798,659.443775 593.865427,658.866466 596.28084,657.942771 L595.820761,647.089357 C594.210486,647.89759 591.795073,648.243976 589.954759,648.243976 C583.858718,648.243976 582.708521,644.664659 582.708521,639.699799 L582.708521,613.951807 L596.510879,613.951807 L596.510879,602.86747 L582.708521,602.86747 L582.708521,586.818273 L569.136202,586.818273 L569.136202,602.86747 L559.474552,602.86747 L559.474552,613.951807 L569.136202,613.951807 L569.136202,639.815261 C569.136202,650.437751 572.471772,659.443775 587.079268,659.443775 Z M613.533787,592.360442 C618.594652,592.360442 622.50532,588.781124 622.50532,584.047189 C622.50532,579.313253 618.594652,575.733936 613.533787,575.733936 C608.472922,575.733936 604.792294,579.659639 604.792294,584.047189 C604.792294,588.434739 608.472922,592.360442 613.533787,592.360442 Z M620.549986,658.289157 L620.549986,602.86747 L606.747628,602.86747 L606.747628,658.289157 L620.549986,658.289157 Z M654.135723,659.674699 C661.957059,659.674699 668.513179,656.095382 671.273651,651.245984 L671.61871,651.245984 L671.61871,658.289157 L684.500911,658.289157 L684.500911,624.574297 C684.500911,613.48996 679.670085,601.251004 659.886706,601.251004 C651.490271,601.251004 642.748778,604.253012 636.537717,610.026104 L643.668935,618.454819 C647.234544,614.875502 652.870507,612.104418 658.736509,612.104418 C665.637688,612.104418 671.388671,615.452811 671.388671,622.26506 L671.388671,623.650602 C654.135723,623.650602 633.432186,625.959839 633.432186,642.470884 C633.432186,655.40261 645.27921,659.674699 654.135723,659.674699 Z M656.896195,649.167671 C652.180389,649.167671 647.234544,647.551205 647.234544,642.23996 C647.234544,634.042169 659.541647,633.003012 668.28314,633.003012 L671.388671,633.003012 L671.388671,634.965863 C671.388671,643.740964 666.327806,649.167671 656.896195,649.167671 Z M756.273172,659.674699 C765.589763,659.674699 772.145883,655.97992 776.746669,650.322289 L770.880667,645.934739 C767.775137,650.091365 763.059331,652.977912 756.273172,652.977912 C743.73603,652.977912 735.799674,643.51004 735.799674,631.271084 C735.799674,618.916667 743.85105,609.448795 756.388191,609.448795 C762.254193,609.448795 767.660117,612.450803 770.190549,616.60743 L776.286591,612.21988 C771.685805,605.98494 763.51941,602.86747 756.273172,602.86747 C738.905205,602.86747 727.518259,614.990964 727.518259,631.271084 C727.518259,647.551205 738.905205,659.674699 756.273172,659.674699 Z M813.667977,659.674699 C830.460845,659.674699 842.422889,647.551205 842.422889,631.271084 C842.422889,614.990964 830.460845,602.86747 813.667977,602.86747 C796.990127,602.86747 785.028084,614.990964 785.028084,631.271084 C785.028084,647.551205 796.990127,659.674699 813.667977,659.674699 Z M813.667977,652.977912 C801.245855,652.977912 793.309499,643.394578 793.309499,631.271084 C793.309499,619.14759 801.245855,609.448795 813.667977,609.448795 C826.205118,609.448795 834.141474,619.14759 834.141474,631.271084 C834.141474,643.394578 826.205118,652.977912 813.667977,652.977912 Z M867.037094,658.289157 L867.037094,630.578313 C867.037094,616.145582 875.203489,609.448795 882.679766,609.448795 C893.146554,609.448795 895.676986,616.261044 895.676986,626.768072 L895.676986,658.289157 L903.498323,658.289157 L903.498323,629.539157 C903.498323,619.493976 907.52401,609.448795 918.795936,609.448795 C928.917665,609.448795 932.713314,617.069277 932.713314,628.384538 L932.713314,658.289157 L940.53465,658.289157 L940.53465,625.151606 C940.53465,611.758032 933.74849,602.86747 920.061152,602.86747 C911.434678,602.86747 904.878558,606.908635 901.19793,614.298193 C897.632321,605.061245 890.501102,602.86747 884.6351,602.86747 C876.928784,602.86747 870.027605,607.25502 866.922074,613.48996 L866.692035,613.48996 C866.692035,611.180723 866.461996,607.139558 866.231956,604.253012 L858.755679,604.253012 C859.100738,607.947791 859.215758,613.259036 859.215758,616.145582 L859.215758,658.289157 L867.037094,658.289157 Z M968.599444,686 L968.599444,649.167671 L968.944503,649.167671 C973.430269,655.864458 981.481645,659.674699 989.187961,659.674699 C1005.98083,659.674699 1017.02272,647.204819 1017.02272,631.271084 C1017.02272,615.337349 1005.98083,602.86747 989.187961,602.86747 C981.481645,602.86747 973.430269,606.562249 968.944503,613.605422 L968.599444,613.605422 L968.599444,604.253012 L960.778108,604.253012 L960.778108,686 L968.599444,686 Z M988.382824,652.977912 C976.305761,652.977912 967.679287,643.625502 967.679287,631.271084 C967.679287,618.916667 976.305761,609.448795 988.382824,609.448795 C1001.38004,609.448795 1008.7413,619.263052 1008.7413,631.271084 C1008.7413,643.279116 1001.38004,652.977912 988.382824,652.977912 Z M1048.42308,659.674699 C1057.04955,659.674699 1063.03058,656.672691 1067.97642,649.514056 L1068.20646,649.514056 C1068.20646,652.400602 1068.55152,655.633534 1069.0116,658.289157 L1076.0278,658.289157 C1075.4527,655.287149 1075.10764,650.322289 1075.10764,646.165663 L1075.10764,622.495984 C1075.10764,609.333333 1065.79105,602.86747 1054.17406,602.86747 C1044.97249,602.86747 1037.38119,606.215863 1033.01045,610.603414 L1037.38119,615.799197 C1041.17684,611.988956 1047.04284,609.448795 1053.36893,609.448795 C1062.68552,609.448795 1067.74638,614.067269 1067.74638,623.419679 L1067.74638,625.151606 C1048.07802,625.151606 1029.7899,626.65261 1029.7899,643.279116 C1029.7899,655.287149 1040.25669,659.674699 1048.42308,659.674699 Z M1050.49343,653.208835 C1044.39739,653.208835 1037.84127,650.668675 1037.84127,642.932731 C1037.84127,632.656627 1052.67881,631.271084 1065.44599,631.271084 L1067.74638,631.271084 L1067.74638,635.312249 C1067.74638,644.895582 1061.53532,653.208835 1050.49343,653.208835 Z M1103.05741,658.289157 L1103.05741,630.578313 C1103.05741,616.145582 1111.10879,609.448795 1119.3902,609.448795 C1130.66213,609.448795 1133.9977,617.069277 1133.9977,628.384538 L1133.9977,658.289157 L1141.81904,658.289157 L1141.81904,625.151606 C1141.81904,611.758032 1135.03288,602.86747 1121.34554,602.86747 C1113.75424,602.86747 1105.93291,607.25502 1102.94239,613.48996 L1102.71236,613.48996 C1102.71236,611.180723 1102.48232,607.139558 1102.25228,604.253012 L1094.776,604.253012 C1095.12106,607.947791 1095.23608,613.259036 1095.23608,616.145582 L1095.23608,658.289157 L1103.05741,658.289157 Z M1162.29253,686 C1171.60912,686 1175.97987,680.573293 1179.20042,672.26004 L1206,604.253012 L1197.48855,604.253012 L1180.8107,649.860442 L1180.58066,649.860442 L1162.29253,604.253012 L1153.55104,604.253012 L1176.55497,658.173695 L1172.18422,669.488956 C1169.88383,675.608434 1167.12336,679.072289 1161.83245,679.072289 C1159.7621,679.072289 1157.80677,678.725904 1156.08147,678.148594 L1155.27633,685.307229 C1157.57673,685.769076 1159.99214,686 1162.29253,686 Z" id="anambientiacompany" fill="#292929" fill-rule="nonzero"></path>
    </g>
</svg>